<svg width="20" height="20" viewBox="0 0 20 20" fill="none" xmlns="http://www.w3.org/2000/svg">
<path d="M8.89605 -0.000976542C10.5665 -0.00108871 12.2033 0.469095 13.619 1.35577C15.0347 2.24244 16.1722 3.50977 16.9013 5.01273C17.6304 6.51569 17.9216 8.19355 17.7417 9.8543C17.5617 11.515 16.9178 13.0916 15.8837 14.4035L19.7062 18.226C19.8968 18.4234 20.0023 18.6878 20 18.9622C19.9976 19.2366 19.8875 19.4991 19.6934 19.6932C19.4994 19.8873 19.2368 19.9974 18.9624 19.9997C18.688 20.0021 18.4236 19.8966 18.2262 19.706L14.4037 15.8835C13.2894 16.7616 11.9813 17.3605 10.5886 17.6303C9.19575 17.9001 7.75864 17.8328 6.3971 17.4342C5.03557 17.0356 3.7891 16.3172 2.76169 15.3389C1.73427 14.3606 0.955709 13.1508 0.490952 11.8104C0.0261946 10.47 -0.111279 9.0379 0.0899992 7.63357C0.291278 6.22924 0.825473 4.89341 1.64802 3.73752C2.47056 2.58163 3.5576 1.6392 4.81844 0.988865C6.07928 0.33853 7.47736 -0.000855679 8.89605 -0.000976542ZM8.89605 2.09239C7.09166 2.09239 5.36118 2.80918 4.08529 4.08507C2.8094 5.36096 2.09261 7.09144 2.09261 8.89583C2.09261 10.7002 2.8094 12.4307 4.08529 13.7066C5.36118 14.9825 7.09166 15.6993 8.89605 15.6993C10.7004 15.6993 12.4309 14.9825 13.7068 13.7066C14.9827 12.4307 15.6995 10.7002 15.6995 8.89583C15.6995 7.09144 14.9827 5.36096 13.7068 4.08507C12.4309 2.80918 10.7004 2.09239 8.89605 2.09239ZM8.89605 3.13907C10.4228 3.13907 11.8871 3.74558 12.9667 4.82519C14.0463 5.90479 14.6528 7.36904 14.6528 8.89583C14.6528 10.4226 14.0463 11.8869 12.9667 12.9665C11.8871 14.0461 10.4228 14.6526 8.89605 14.6526C7.36926 14.6526 5.90501 14.0461 4.82541 12.9665C3.7458 11.8869 3.13929 10.4226 3.13929 8.89583C3.13929 7.36904 3.7458 5.90479 4.82541 4.82519C5.90501 3.74558 7.36926 3.13907 8.89605 3.13907Z" fill="#353F54" fill-opacity="0.5"/>
</svg>
