<svg width="18" height="18" viewBox="0 0 18 18" fill="none" xmlns="http://www.w3.org/2000/svg">
<path fill-rule="evenodd" clip-rule="evenodd" d="M5 3.99902C5 2.93816 5.42143 1.92074 6.17157 1.1706C6.92172 0.420451 7.93913 -0.000976562 9 -0.000976562C10.0609 -0.000976562 11.0783 0.420451 11.8284 1.1706C12.5786 1.92074 13 2.93816 13 3.99902C13 5.05989 12.5786 6.07731 11.8284 6.82745C11.0783 7.5776 10.0609 7.99902 9 7.99902C7.93913 7.99902 6.92172 7.5776 6.17157 6.82745C5.42143 6.07731 5 5.05989 5 3.99902ZM5 9.99902C3.67392 9.99902 2.40215 10.5258 1.46447 11.4635C0.526784 12.4012 0 13.6729 0 14.999C0 15.7947 0.316071 16.5577 0.87868 17.1203C1.44129 17.683 2.20435 17.999 3 17.999H15C15.7956 17.999 16.5587 17.683 17.1213 17.1203C17.6839 16.5577 18 15.7947 18 14.999C18 13.6729 17.4732 12.4012 16.5355 11.4635C15.5979 10.5258 14.3261 9.99902 13 9.99902H5Z" fill="#353F54" fill-opacity="0.5"/>
</svg>
