<svg width="20" height="20" viewBox="0 0 20 20" fill="none" xmlns="http://www.w3.org/2000/svg">
<path d="M8.38077 0.573266C8.83279 0.203195 9.40673 0 10 0C10.5933 0 11.1672 0.203195 11.6192 0.573266L19.1192 6.71251C19.3953 6.93852 19.617 7.21962 19.7691 7.53635C19.9212 7.85307 20 8.19785 20 8.5468V18.1479C20 18.6391 19.7974 19.1102 19.4367 19.4575C19.0761 19.8049 18.587 20 18.0769 20H15C14.49 20 14.0008 19.8049 13.6402 19.4575C13.2795 19.1102 13.0769 18.6391 13.0769 18.1479V13.3325C13.0769 12.9407 12.9158 12.5649 12.6288 12.2872C12.3417 12.0095 11.9522 11.8527 11.5454 11.8509H8.45385C8.04716 11.8528 7.65781 12.0098 7.37096 12.2875C7.0841 12.5651 6.92307 12.9409 6.92308 13.3325V18.1479C6.92308 18.3911 6.87334 18.632 6.77669 18.8567C6.68005 19.0814 6.53839 19.2856 6.35982 19.4575C6.18125 19.6295 5.96925 19.7659 5.73593 19.859C5.50261 19.9521 5.25254 20 5 20H1.92308C1.41305 20 0.923903 19.8049 0.563256 19.4575C0.202609 19.1102 0 18.6391 0 18.1479V8.5468C2.02392e-05 8.19785 0.0787988 7.85307 0.23088 7.53635C0.382961 7.21962 0.60471 6.93852 0.880769 6.71251L8.38077 0.573266Z" fill="#4B4CED"/>
</svg>
